# xmcd
#
# Track frame offsets:
#	150
#	14674
#	26229
#	38610
#	50963
#	61049
#	70782
#	83061
#	94646
#	104595
#	115185
#	124603
#	134862
#	143249
#	157176
#	172705
#	187697
#	200687
#	211464
#	224192
#
# Disc length: 3122 seconds
# Revision: 0
# Processed by: cddbd v1.5.2PL0 Copyright (c) Steve Scherf et al.
# Submitted via: dBpowerAMP V12.0
#
DISCID=2e0c3014
DTITLE=Ike and Tina Turner - The Soul of Ike and Tina Turner - CD2
DYEAR=2014
DGENRE=Soul
TTITLE0=Rockin' And Rollin'
TTITLE1=Dust My Broom
TTITLE2=Rock Me Baby
TTITLE3=Three O'clock in the Morning
TTITLE4=I'm Fed Up
TTITLE5=If
TTITLE6=Reconsider Baby
TTITLE7=If You Want it
TTITLE8=Mind in a Whirl
TTITLE9=You're My Baby
TTITLE10=Ain't Nobody's Business
TTITLE11=Make 'Em Wait
TTITLE12=The Way You Love Me
TTITLE13=It Sho' Ain't Me
TTITLE14=Living for the City
TTITLE15=Chicken
TTITLE16=Never Been to Spain
TTITLE17=You Got What You Wanted
TTITLE18=Puppy Love
TTITLE19=You Can't Blame Me
EXTD=
EXTT0=
EXTT1=
EXTT2=
EXTT3=
EXTT4=
EXTT5=
EXTT6=
EXTT7=
EXTT8=
EXTT9=
EXTT10=
EXTT11=
EXTT12=
EXTT13=
EXTT14=
EXTT15=
EXTT16=
EXTT17=
EXTT18=
EXTT19=
PLAYORDER=
